<?xml version="1.0" encoding="UTF-8" standalone="no"?>
<!-- Created with Inkscape (http://www.inkscape.org/) -->

<svg
   width="108"
   height="108"
   viewBox="0 0 108 108"
   version="1.1"
   id="svg1"
   xml:space="preserve"
   inkscape:version="1.3.2 (091e20ef0f, 2023-11-25)"
   sodipodi:docname="icon-vector-monochrome.svg"
   inkscape:export-filename="monochrome.png"
   inkscape:export-xdpi="455.11111"
   inkscape:export-ydpi="455.11111"
   xmlns:inkscape="http://www.inkscape.org/namespaces/inkscape"
   xmlns:sodipodi="http://sodipodi.sourceforge.net/DTD/sodipodi-0.dtd"
   xmlns="http://www.w3.org/2000/svg"
   xmlns:svg="http://www.w3.org/2000/svg"><sodipodi:namedview
     id="namedview1"
     pagecolor="#ffffff"
     bordercolor="#000000"
     borderopacity="0.25"
     inkscape:showpageshadow="2"
     inkscape:pageopacity="0.0"
     inkscape:pagecheckerboard="true"
     inkscape:deskcolor="#d1d1d1"
     inkscape:document-units="px"
     inkscape:zoom="6.7896004"
     inkscape:cx="37.631081"
     inkscape:cy="59.944618"
     inkscape:window-width="2554"
     inkscape:window-height="1410"
     inkscape:window-x="0"
     inkscape:window-y="24"
     inkscape:window-maximized="0"
     inkscape:current-layer="layer1"
     showgrid="false" /><defs
     id="defs1" /><g
     inkscape:label="Layer 1"
     inkscape:groupmode="layer"
     id="layer1"
     style="display:inline"><path
       id="path1"
       style="display:inline;opacity:1;fill:#ffffff;fill-opacity:1;stroke:none;stroke-width:0.822587;stroke-linecap:round;stroke-linejoin:round;stroke-dasharray:none;stroke-opacity:1"
       inkscape:label="body"
       d="m 58.986328,37.501953 c -0.586933,0.28897 -1.162743,0.561649 -1.742187,0.800781 0.579444,-0.239132 1.155254,-0.511811 1.742187,-0.800781 z m -6.291016,1.669922 c 0.297699,0.02598 0.607213,0.0317 0.929688,0.01563 -0.322475,0.01608 -0.631989,0.01036 -0.929688,-0.01563 z m 28.865235,11.830078 c -1.263276,4.947337 -4.517873,9.660561 -11.265625,9.757813 -3.873168,0.05584 -12.502567,-3.44031 -16.150391,-3.570313 -8.290109,-0.295447 -10.17535,3.548424 -19.283203,3.771485 -6.359093,0.155746 -8.167853,-5.684549 -8.683594,-9.228516 1.548531,13.041537 10.253218,16.247185 12.507813,18.082031 3.276456,2.666459 5.10468,3.887711 6.236328,7.294922 1.131649,3.407209 0.379902,8.871686 -0.751953,12.371094 -0.446338,1.379948 -2.832302,5.863788 -5.47461,9.378906 C 35.114638,103.62282 30.575274,108 30.575274,108 h 46.886971 c 0,0 -3.509069,-4.29563 -6.94662,-7.54883 -2.19784,-2.079963 -5.60983,-7.088574 -7.355469,-11.386717 -0.784595,-1.931842 -1.538987,-5.894768 -1.523437,-8.236328 0.0192,-2.90408 0.455638,-4.079994 1.767578,-6.822266 0.947794,-1.981119 2.999245,-3.171123 5.501953,-4.904297 2.452683,-1.698527 5.409204,-3.936788 6.638672,-5.195312 2.186193,-2.237863 4.823564,-7.824521 6.015625,-12.904297 z"
       sodipodi:nodetypes="cccccccssscssssccsscsssc" /><path
       id="path2-2"
       style="display:inline;opacity:1;fill:#ffffff;fill-opacity:1;stroke:none;stroke-width:0.58253;stroke-linecap:round;stroke-linejoin:round;stroke-dasharray:none;stroke-opacity:1"
       inkscape:label="right inner eye"
       d="m 68.851562,39.119141 c -4.24919,-0.06443 -6.938104,2.884327 -7.021484,7.082031 -0.05643,2.840973 2.536209,6.630786 7.242188,6.535156 4.705973,-0.09563 6.776937,-3.52197 6.773437,-6.664062 -0.0035,-3.14209 -2.744948,-6.888705 -6.994141,-6.953125 z m 0.361329,0.673828 c 3.043073,0.04614 4.901815,2.69314 4.904297,4.943359 0.0025,2.250223 -1.606362,4.93933 -4.976563,5.007813 -3.370202,0.06849 -5.093147,-2.983005 -5.052734,-5.017579 0.05973,-3.006199 2.081926,-4.979733 5.125,-4.933593 z" /><path
       id="path2-2-3"
       style="display:inline;opacity:1;fill:#fefefe;fill-opacity:1;stroke:none;stroke-width:0.58253;stroke-linecap:round;stroke-linejoin:round;stroke-dasharray:none;stroke-opacity:1"
       inkscape:label="left inner eye"
       d="m 38.634766,39.332031 c -4.249192,-0.06443 -7.076777,2.98589 -7.160157,7.183594 -0.05643,2.840972 2.428791,6.615161 7.134766,6.519531 4.705977,-0.09562 6.872641,-3.81689 6.869141,-6.958984 -0.0035,-3.142088 -2.594561,-6.679721 -6.84375,-6.744141 z m 0.01172,0.515625 c 3.043072,0.04614 4.999715,2.166253 4.9375,4.996094 -0.06221,2.829836 -1.610268,5.285035 -4.980468,5.353516 -3.370201,0.06849 -5.298229,-3.06113 -5.257813,-5.095704 0.05973,-3.006202 2.257708,-5.300049 5.300781,-5.253906 z" /></g></svg>
